<?xml version="1.0" encoding="utf-8"?>
<svg version="1.1" width="2048.00" height="2048.00" viewBox="0 0 2048.0 2048.0" xmlns="http://www.w3.org/2000/svg">
  <g id="document" transform="matrix(1, 0, 0, 1, 1024, 1024)">
    <path d="M-461.948,369.011 L-577.434,484.497 C-258.691,803.241 258.691,803.241 577.434,484.497 L461.948,369.01 C206.722,624.237 -206.722,624.237 -461.948,369.011 Z " fill="#000000" fill-opacity="1.00" stroke-width="81.73" stroke="#000000" stroke-linecap="square" stroke-linejoin="miter"/>
    <text style="white-space: pre; fill: rgb(51, 51, 51); font-family: Arial, sans-serif; font-size: 46.7px;" x="553.694" y="-291.857"> </text>
    <ellipse style="stroke: rgb(0, 0, 0);" cx="-251.915" cy="-629.954" rx="78.193" ry="77.122"/>
  </g>
  <rect x="683.18" y="497.946" width="236.721" height="758.364" style="stroke: rgb(0, 0, 0);" rx="25.707" ry="25.707"/>
  <path style="stroke: rgb(0, 0, 0);" d="M 693.927 385.551 C 693.927 385.551 685.791 411.414 684.338 453.55 C 682.885 495.686 683.757 519.805 683.757 519.805 L 920.88 533.172 C 920.88 533.172 921.752 513.703 930.76 497.139 C 939.768 480.575 960.4 474.473 960.4 474.473 L 982.485 470.114 L 1023.749 469.242 L 1058.039 469.533 C 1058.039 469.533 1084.483 470.114 1111.218 477.96 C 1137.953 485.806 1150.157 494.814 1150.157 494.814 L 1171.952 511.669 C 1171.952 511.669 1202.754 538.694 1204.789 611.051 C 1206.824 683.408 1180.379 713.921 1180.379 713.921 C 1180.379 713.921 1169.336 727.288 1153.644 738.331 C 1137.952 749.374 1117.901 755.185 1117.901 755.185 L 1100.466 758.672 L 1083.902 760.125 L 1075.184 760.125 L 1067.92 761.287 L 1060.364 763.612 L 1052.518 767.971 L 1044.963 773.202 C 1044.963 773.202 1028.98 784.825 1019.1 793.252 C 1009.22 801.679 1007.767 801.97 1007.767 801.97 L 989.75 818.825 L 976.383 831.901 C 976.383 831.901 968.537 842.072 968.246 842.072 C 967.955 842.072 966.212 844.397 966.212 844.397 L 965.34 847.593 L 965.34 850.499 L 965.922 853.986 L 967.084 856.602 L 968.828 859.508 L 970.281 862.123 L 972.024 864.157 L 973.768 865.901 L 976.092 868.516 L 998.177 889.148 L 1018.228 906.002 L 1036.536 920.241 L 1054.552 932.446 C 1054.552 932.446 1068.791 938.839 1077.218 938.549 C 1085.645 938.259 1119.064 937.967 1119.064 937.967 L 1165.849 931.865 C 1165.849 931.865 1220.771 923.147 1272.206 899.609 C 1323.641 876.071 1364.324 838.875 1364.324 838.875 C 1364.324 838.875 1410.237 793.834 1429.126 748.211 C 1448.015 702.588 1452.373 643.597 1452.373 643.597 C 1452.373 643.597 1460.8 560.488 1434.647 490.455 C 1408.494 420.422 1356.187 383.517 1356.187 383.517 C 1356.187 383.517 1307.077 341.091 1209.729 321.331 C 1112.381 301.571 977.255 306.51 977.255 306.51 C 976.798 305.595 822.572 304.8 810.745 307.092 C 798.918 309.384 754.164 318.509 755.242 319.587"/>
</svg>